curl_17s
version=1
nRows=192
nColumns=3
inDegrees=yes
endheader
time	r_shoulder_elev	r_elbow_flex
0.0000	17.787730	6.645358
0.0100	17.803577	6.728538
0.0200	17.819757	6.810387
0.0300	17.836244	6.890231
0.0400	17.853010	6.967417
0.0500	17.870027	7.041324
0.0600	17.887266	7.111372
0.0700	17.904696	7.177033
0.0800	17.922286	7.237834
0.0900	17.940003	7.293365
0.1000	17.957815	7.343287
0.1100	17.975687	7.387330
0.1200	17.993584	7.425297
0.1300	18.011471	7.457068
0.1400	18.029312	7.482593
0.1500	18.047070	7.501895
0.1600	18.064709	7.515067
0.1700	18.082193	7.522263
0.1800	18.099486	7.523701
0.1900	18.116553	7.519651
0.2000	18.133361	7.510431
0.2100	18.149876	7.496404
0.2200	18.166066	7.477965
0.2300	18.181902	7.455541
0.2400	18.197354	7.429580
0.2500	18.212397	7.400548
0.2600	18.227004	7.368916
0.2700	18.241152	7.335164
0.2800	18.254819	7.299764
0.2900	18.267985	7.263184
0.3000	18.280630	7.225877
0.3100	18.292736	7.188278
0.3200	18.304288	7.150801
0.3300	18.315268	7.113835
0.3400	18.325664	7.077741
0.3500	18.335459	7.042847
0.3600	18.344641	7.009452
0.3700	18.353196	6.977818
0.3800	18.361111	6.948172
0.3900	18.368372	6.920709
0.4000	18.374966	6.895585
0.4100	18.380880	6.872923
0.4200	18.386102	6.852812
0.4300	18.390618	6.835307
0.4400	18.394416	6.820434
0.4500	18.397486	6.808186
0.4600	18.399816	6.798530
0.4700	18.401399	6.791407
0.4800	18.402228	6.786735
0.4900	18.402298	6.784408
0.5000	18.401611	6.784304
0.5100	18.400168	6.786281
0.5200	18.397977	6.790185
0.5300	18.395052	6.795851
0.5400	18.391410	6.803101
0.5500	18.387077	6.811754
0.5600	18.382084	6.821623
0.5700	18.376470	6.832520
0.5800	18.370279	6.844257
0.5900	18.363565	6.856649
0.6000	18.356387	6.869520
0.6100	18.348811	6.882700
0.6200	18.340909	6.896030
0.6300	18.332758	6.909365
0.6400	18.324439	6.922577
0.6500	18.316035	6.935555
0.6600	18.307631	6.948207
0.6700	18.299312	6.960463
0.6800	18.291162	6.972276
0.6900	18.283260	6.983623
0.7000	18.275679	6.994503
0.7100	18.268489	7.004940
0.7200	18.261748	7.014977
0.7300	18.255508	7.024683
0.7400	18.249806	7.034142
0.7500	18.244671	7.043455
0.7600	18.240119	7.052737
0.7700	18.236153	7.062112
0.7800	18.232763	7.071708
0.7900	18.229927	7.081655
0.8000	18.227611	7.092080
0.8100	18.225771	7.103098
0.8200	18.224351	7.114815
0.8300	18.223288	7.127316
0.8400	18.222512	7.140666
0.8500	18.221947	7.154904
0.8600	18.221515	7.170039
0.8700	18.221136	7.186049
0.8800	18.220733	7.202881
0.8900	18.220229	7.220446
0.9000	18.219554	7.238622
0.9100	18.218647	7.257252
0.9200	18.217454	7.276149
0.9300	18.215933	7.295096
0.9400	18.214054	7.313850
0.9500	18.211801	7.332144
0.9600	18.209172	7.349695
0.9700	18.206181	7.366203
0.9800	18.202856	7.381363
0.9900	18.199241	7.394863
1.0000	18.195396	7.406397
1.0100	18.191394	7.415665
1.0200	18.187323	7.422379
1.0300	18.183281	7.426273
1.0400	18.179381	7.427103
1.0500	18.175741	7.424655
1.0600	18.172491	7.418750
1.0700	18.169765	7.409246
1.0800	18.167701	7.396045
1.0900	18.166439	7.379092
1.1000	18.166119	7.358384
1.1100	18.166880	7.333966
1.1200	18.168857	7.305937
1.1300	18.172178	7.274448
1.1400	18.176962	7.239706
1.1500	18.183323	7.201969
1.1600	18.191360	7.161548
1.1700	18.201160	7.118805
1.1800	18.212798	7.074150
1.1900	18.226333	7.028038
1.2000	18.241808	6.980967
1.2100	18.259250	6.933470
1.2200	18.278670	6.886115
1.2300	18.300061	6.839496
1.2400	18.323399	6.794229
1.2500	18.348643	6.750946
1.2600	18.375737	6.710287
1.2700	18.404606	6.672894
1.2800	18.435164	6.639402
1.2900	18.467310	6.610434
1.3000	18.500930	6.586589
1.3100	18.535900	6.568441
1.3200	18.572088	6.556524
1.3300	18.609354	6.551327
1.3400	18.647553	6.553290
1.3500	18.686539	6.562793
1.3600	18.726164	6.580153
1.3700	18.766280	6.605618
1.3800	18.806744	6.639360
1.3900	18.847417	6.681476
1.4000	18.888166	6.731984
1.4100	18.928868	6.790820
1.4200	18.969406	6.857841
1.4300	19.009675	6.932823
1.4400	19.049580	7.015464
1.4500	19.089036	7.105389
1.4600	19.127972	7.202149
1.4700	19.166325	7.305232
1.4800	19.204043	7.414064
1.4900	19.241085	7.528016
1.5000	19.277420	7.646411
1.5100	19.313024	7.768530
1.5200	19.347881	7.893621
1.5300	19.381984	8.020902
1.5400	19.415329	8.149575
1.5500	19.447919	8.278825
1.5600	19.479758	8.407837
1.5700	19.510855	8.535794
1.5800	19.541221	8.661894
1.5900	19.570866	8.785352
1.6000	19.599800	8.905411
1.6100	19.628032	9.021346
1.6200	19.655570	9.132478
1.6300	19.682416	9.238176
1.6400	19.708571	9.337869
1.6500	19.734029	9.431048
1.6600	19.758781	9.517278
1.6700	19.782811	9.596198
1.6800	19.806097	9.667529
1.6900	19.828613	9.731077
1.7000	19.850324	9.786735
1.7100	19.871191	9.834483
1.7200	19.891171	9.874388
1.7300	19.910214	9.906605
1.7400	19.928266	9.931371
1.7500	19.945270	9.949003
1.7600	19.961167	9.959889
1.7700	19.975897	9.964489
1.7800	19.989399	9.963319
1.7900	20.001612	9.956949
1.8000	20.012481	9.945994
1.8100	20.021950	9.931102
1.8200	20.029971	9.912946
1.8300	20.036503	9.892218
1.8400	20.041510	9.869615
1.8500	20.044967	9.845834
1.8600	20.046859	9.821565
1.8700	20.047181	9.797482
1.8800	20.045940	9.774239
1.8900	20.043158	9.752464
1.9000	20.038867	9.732762
1.9100	20.033113	9.715704
